<svg width="18" height="18" viewBox="0 0 18 18" fill="none" xmlns="http://www.w3.org/2000/svg">
<path d="M10.0575 9.00002L13.2825 5.78252C13.4237 5.64129 13.5031 5.44974 13.5031 5.25002C13.5031 5.05029 13.4237 4.85874 13.2825 4.71752C13.1413 4.57629 12.9497 4.49695 12.75 4.49695C12.5503 4.49695 12.3587 4.57629 12.2175 4.71752L9.00002 7.94252L5.78252 4.71752C5.64129 4.57629 5.44974 4.49695 5.25002 4.49695C5.05029 4.49695 4.85874 4.57629 4.71752 4.71752C4.57629 4.85874 4.49695 5.05029 4.49695 5.25002C4.49695 5.44974 4.57629 5.64129 4.71752 5.78252L7.94252 9.00002L4.71752 12.2175C4.64722 12.2872 4.59142 12.3702 4.55335 12.4616C4.51527 12.553 4.49567 12.651 4.49567 12.75C4.49567 12.849 4.51527 12.9471 4.55335 13.0385C4.59142 13.1298 4.64722 13.2128 4.71752 13.2825C4.78724 13.3528 4.87019 13.4086 4.96158 13.4467C5.05298 13.4848 5.15101 13.5044 5.25002 13.5044C5.34902 13.5044 5.44705 13.4848 5.53845 13.4467C5.62984 13.4086 5.71279 13.3528 5.78252 13.2825L9.00002 10.0575L12.2175 13.2825C12.2872 13.3528 12.3702 13.4086 12.4616 13.4467C12.553 13.4848 12.651 13.5044 12.75 13.5044C12.849 13.5044 12.9471 13.4848 13.0384 13.4467C13.1298 13.4086 13.2128 13.3528 13.2825 13.2825C13.3528 13.2128 13.4086 13.1298 13.4467 13.0385C13.4848 12.9471 13.5044 12.849 13.5044 12.75C13.5044 12.651 13.4848 12.553 13.4467 12.4616C13.4086 12.3702 13.3528 12.2872 13.2825 12.2175L10.0575 9.00002Z" fill="#FF7B51"/>
</svg>
